HIERARCHY
ROOT Hips
{
  OFFSET 0 0 0
  CHANNELS 6 Xposition Yposition Zposition Zrotation Xrotation Yrotation
  JOINT Spine
  {
    OFFSET 0.00000000 0.00000000 0.00000000
    CHANNELS 3 Zrotation Xrotation Yrotation
    JOINT Spine1
    {
      OFFSET 0.19000000 0.00000000 0.00000000
      CHANNELS 3 Zrotation Xrotation Yrotation
      JOINT Neck
      {
        OFFSET 0.22500000 0.00600000 0.00000000
        CHANNELS 3 Zrotation Xrotation Yrotation
        JOINT Head
        {
          OFFSET 0.14000000 0.00030878 0.00000000
          CHANNELS 3 Zrotation Xrotation Yrotation
          End Site
          {
            OFFSET 0.17000000 0.00000000 0.00000000
          }
        }
      }
      JOINT LeftShoulder
      {
        OFFSET 0.19800000 0.03700000 0.04300000
        CHANNELS 3 Zrotation Xrotation Yrotation
        JOINT LeftArm
        {
          OFFSET 0.08000000 0.00000000 0.00000000
          CHANNELS 3 Zrotation Xrotation Yrotation
          JOINT LeftForeArm
          {
            OFFSET 0.15200000 0.00000000 0.00000000
            CHANNELS 3 Zrotation Xrotation Yrotation
            JOINT LeftHand
            {
              OFFSET 0.17800000 0.00000000 0.00000000
              CHANNELS 3 Zrotation Xrotation Yrotation
              End Site
              {
                OFFSET 0.07200000 0.00000000 0.00000000
              }
            }
          }
        }
      }
      JOINT RightShoulder
      {
        OFFSET 0.19800000 0.03700000 -0.04300000
        CHANNELS 3 Zrotation Xrotation Yrotation
        JOINT RightArm
        {
          OFFSET 0.08000000 0.00000000 0.00151654
          CHANNELS 3 Zrotation Xrotation Yrotation
          JOINT RightForeArm
          {
            OFFSET 0.15200000 0.00000000 0.00000000
            CHANNELS 3 Zrotation Xrotation Yrotation
            JOINT RightHand
            {
              OFFSET 0.17800000 0.00000000 0.00000000
              CHANNELS 3 Zrotation Xrotation Yrotation
              End Site
              {
                OFFSET 0.07200000 0.00000000 0.00000000
              }
            }
          }
        }
      }
    }
  }
  JOINT LeftUpLeg
  {
    OFFSET 0.05984250 -0.07666000 0.04788790
    CHANNELS 3 Zrotation Xrotation Yrotation
    JOINT LeftLeg
    {
      OFFSET 0.16000000 0.00000000 0.00000000
      CHANNELS 3 Zrotation Xrotation Yrotation
      JOINT LeftFoot
      {
        OFFSET 0.18000000 0.00000000 0.00000000
        CHANNELS 3 Zrotation Xrotation Yrotation
        End Site
        {
          OFFSET 0.00000000 -0.10800000 0.00000000
        }
      }
    }
  }
  JOINT RightUpLeg
  {
    OFFSET 0.05984250 -0.07665980 -0.04788790
    CHANNELS 3 Zrotation Xrotation Yrotation
    JOINT RightLeg
    {
      OFFSET 0.16000000 0.00000000 0.00000000
      CHANNELS 3 Zrotation Xrotation Yrotation
      JOINT RightFoot
      {
        OFFSET 0.18000000 0.00000000 0.00000000
        CHANNELS 3 Zrotation Xrotation Yrotation
        End Site
        {
          OFFSET 0.00000000 -0.10800000 0.00000000
        }
      }
    }
  }
  JOINT Tail
  {
    OFFSET 0.06836960 -0.00722574 0.00000000
    CHANNELS 3 Zrotation Xrotation Yrotation
    JOINT Tail1
    {
      OFFSET 0.12000000 0.00000000 0.00000000
      CHANNELS 3 Zrotation Xrotation Yrotation
      End Site
      {
        OFFSET 0.12000000 0.00000000 0.00000000
      }
    }
  }
}
MOTION
Frames:	21
Frame Time:	0.0166667
0.0000000 0.1696900 0.0000000 -33.0535 3.56495 2.31708 -117.454 0.898517 -4.07955 -58.4715 -4.26515 9.99738 -7.05873 -2.55985 -1.87271 -100.283 74.909 123.77 -111.645 -37.003 -140.558 128.239 22.0217 -123.385 -58.2435 -32.1731 24.8838 3.88565 1.75917 -14.9366 73.4722 -32.7229 44.6934 44.9329 15.3359 -43.8055 -72.304 13.5468 -22.3608 4.96657 0.886542 2.31133 -165.391 42.5898 -29.4366 168.291 75.4093 -8.52352 -27.4838 -1.87456 23.8229 -138.438 -23.5065 32.0164 142.555 -67.9446 -9.29269 -51.3945 -3.94234 1.79301 -6.03818 33.6596 2.88579 14.8013 -40.6145 11.0811 
0.0002700 0.1695470 -0.0000126 -33.0604 3.32725 2.27771 -117.55 0.992532 -3.67214 -58.3143 -4.1128 9.56756 -7.12201 -2.57822 -1.86441 -100.303 74.8282 123.589 -111.7 -37.0761 -140.556 128.177 22.0424 -123.222 -58.2215 -32.1182 24.892 3.92584 1.7402 -14.9086 73.4856 -32.7131 44.7142 45.0503 15.4121 -43.7844 -72.4229 13.6056 -22.4185 4.91809 0.886459 2.44061 -165.804 42.1691 -29.2049 168.257 75.1872 -8.44491 -27.2945 -1.82558 23.9936 -137.892 -23.9882 32.0649 142.111 -68.6527 -9.70186 -51.6118 -3.97087 1.95288 -6.08887 33.9412 2.92237 14.8235 -40.6547 11.1283 
0.0005097 0.1694410 -0.0000866 -33.1622 3.16498 2.27621 -117.416 1.04275 -3.38936 -58.4024 -4.02366 9.25091 -7.08355 -2.56746 -1.71758 -100.31 74.8834 123.605 -111.698 -37.0679 -140.566 128.258 22.0434 -123.207 -58.1626 -32.0162 24.8484 3.91948 1.72364 -14.852 73.522 -32.6815 44.7607 45.1101 15.4097 -43.815 -72.4232 13.5741 -22.4159 4.878 0.891141 2.44675 -165.52 42.0179 -29.283 168.452 75.4847 -8.61798 -27.3041 -1.82233 23.9015 -137.626 -24.6084 32.2642 141.821 -69.4128 -10.1441 -51.314 -3.93093 1.81708 -5.97283 33.9334 3.17331 14.7915 -40.6093 11.0844 
0.0002693 0.1694460 -0.0002265 -33.1416 3.22713 2.29848 -117.324 1.00567 -3.48705 -58.5682 -4.07672 9.34051 -7.04726 -2.54137 -1.6487 -100.354 74.8662 123.842 -111.68 -37.052 -140.551 128.288 21.9847 -123.275 -58.1937 -32.0775 24.8653 3.95018 1.72386 -14.9327 73.5309 -32.6955 44.8188 45.1911 15.3211 -43.912 -72.4583 13.5713 -22.4049 4.9738 0.903427 2.31092 -164.978 42.3791 -29.4792 168.761 76.0637 -8.92495 -27.7705 -1.93012 23.6805 -138.333 -24.5913 32.3921 142.567 -68.3532 -9.60058 -50.8394 -3.84699 1.35295 -5.96735 33.7234 3.36586 14.7432 -40.5536 10.9679 
0.0001390 0.1694400 -0.0003137 -33.0289 3.21519 2.25164 -117.322 1.00645 -3.47539 -58.692 -4.07137 9.30602 -7.02078 -2.56561 -1.75364 -100.383 74.6839 123.803 -111.697 -37.0944 -140.514 128.361 21.9728 -123.294 -58.1231 -32.0815 24.813 3.91933 1.74435 -14.9025 73.4812 -32.7505 44.7807 45.311 15.4193 -43.9372 -72.4027 13.7403 -22.4989 5.07017 0.900591 2.40282 -165.254 42.2465 -29.3959 168.617 75.7078 -8.76188 -27.632 -1.90286 23.6797 -138.735 -24.4159 32.283 143.072 -67.1129 -9.07281 -50.9202 -3.83849 1.20497 -6.17542 33.8169 3.39397 14.7586 -40.6238 10.9812 
0.0000991 0.1694820 -0.0002748 -32.9664 3.17607 2.22622 -117.234 1.02242 -3.43178 -58.9081 -4.0577 9.24135 -6.88643 -2.54985 -1.85677 -100.561 74.5426 123.811 -111.689 -37.0954 -140.49 128.328 22.0264 -123.197 -58.0038 -31.9832 24.7673 3.92914 1.73228 -14.7972 73.4381 -32.7665 44.6798 45.3343 15.5334 -43.8715 -72.2644 13.8255 -22.565 5.08125 0.895806 2.50052 -165.423 41.9501 -29.387 168.46 75.3686 -8.62862 -27.2965 -1.82842 23.6391 -138.713 -24.4879 32.2528 142.934 -67.3277 -9.1731 -50.845 -3.83171 1.1997 -6.30129 33.8924 3.44231 14.7479 -40.6868 11.002 
0.0002801 0.1698000 0.0000240 -33.0418 3.45186 2.24847 -117.013 1.03432 -3.66977 -59.1249 -3.97312 9.3597 -6.76544 -2.54457 -1.83995 -100.651 74.5978 123.845 -111.672 -37.05 -140.536 128.251 22.1962 -123.117 -57.8419 -31.89 24.7671 3.94344 1.70964 -14.7435 73.4685 -32.7873 44.8193 45.2121 15.5062 -44.0183 -72.0189 13.6622 -22.4924 4.97201 0.88763 2.47294 -164.922 42.3815 -29.6957 168.604 75.8957 -8.87116 -27.6438 -1.90756 23.5991 -138.504 -24.1446 31.9771 142.464 -68.2264 -9.51767 -50.7528 -3.84223 1.37103 -6.176 33.5848 3.39141 14.7551 -40.6613 11.0182 
0.0004604 0.1700010 0.0001295 -33.1057 3.65632 2.27344 -116.857 1.05077 -3.86716 -59.244 -3.91998 9.49257 -6.7454 -2.57592 -1.79317 -100.556 74.7173 123.739 -111.663 -37.0136 -140.583 128.439 22.2833 -123.244 -57.7033 -31.8907 24.7007 3.85625 1.74111 -14.6858 73.475 -32.8415 44.955 45.1013 15.4637 -44.1043 -71.8617 13.5339 -22.4232 4.92843 0.880236 2.4588 -164.615 42.7678 -29.8526 168.72 76.2431 -9.0246 -27.9391 -1.97549 23.5776 -138.714 -23.7336 31.6923 142.73 -67.6122 -9.19751 -50.8594 -3.84954 1.34607 -6.09887 33.3975 3.32506 14.8579 -40.6643 11.1059 
0.0005796 0.1699180 -0.0001137 -33.1424 3.51871 2.26809 -116.791 1.04088 -3.7965 -59.3025 -4.00155 9.50334 -6.72375 -2.55425 -1.89863 -100.614 74.6139 123.777 -111.623 -36.9806 -140.547 128.579 22.3184 -123.276 -57.5446 -31.8847 24.6206 3.79372 1.77432 -14.6561 73.4288 -32.821 44.7669 45.0119 15.572 -43.9331 -71.772 13.5357 -22.4351 4.95322 0.88525 2.44048 -165.111 42.4806 -29.5591 168.42 75.5739 -8.64215 -27.5586 -1.8938 23.6658 -138.939 -23.6731 31.7247 143.209 -66.4751 -8.74694 -50.984 -3.85112 1.24101 -6.10729 33.5649 3.35587 14.8772 -40.7004 11.1228 
0.0006494 0.1699310 -0.0001988 -33.1502 3.45365 2.27408 -116.788 1.0517 -3.76142 -59.3078 -3.99678 9.47735 -6.69787 -2.53205 -1.90791 -100.751 74.6008 123.755 -111.702 -37.0471 -140.616 128.426 22.3596 -123.188 -57.5141 -31.783 24.6247 3.77309 1.75692 -14.6465 73.4571 -32.7898 44.7889 45.0132 15.6199 -43.96 -71.7433 13.508 -22.4275 4.91361 0.889106 2.3821 -165.295 42.3896 -29.461 168.352 75.3572 -8.53274 -27.2704 -1.82111 23.7524 -138.771 -23.6813 31.7624 142.979 -66.927 -8.94119 -50.864 -3.85004 1.29577 -6.11503 33.6496 3.35317 14.8298 -40.7271 11.0953 
0.0007097 0.1699210 -0.0000834 -33.1661 3.48516 2.28759 -116.854 1.04831 -3.78168 -59.2175 -3.97581 9.47839 -6.73015 -2.55197 -1.73152 -100.611 74.8345 123.668 -111.73 -37.0516 -140.68 128.366 22.3384 -123.223 -57.6214 -31.7822 24.6753 3.82139 1.73167 -14.6735 73.4886 -32.7591 44.8221 44.9745 15.5481 -43.9055 -71.8561 13.4085 -22.3828 4.89461 0.897941 2.28363 -164.87 42.5763 -29.6677 168.632 75.9147 -8.84145 -27.3799 -1.83418 23.6797 -138.52 -23.8859 31.8622 142.481 -68.1537 -9.44854 -50.7234 -3.84824 1.3916 -6.03378 33.5691 3.32486 14.7933 -40.6717 11.0646 
0.0006002 0.1698710 0.0000562 -33.1950 3.60122 2.29248 -116.921 0.990826 -3.91343 -59.1052 -4.07184 9.65785 -6.97968 -2.49493 -1.80331 -100.477 74.7345 124.188 -111.565 -36.9027 -140.55 128.529 22.2336 -123.379 -57.764 -31.8599 24.662 3.83707 1.74948 -14.675 73.4723 -32.7052 44.6557 44.8217 15.4723 -43.7979 -71.8991 13.388 -22.3381 4.89867 0.887262 2.34684 -164.668 42.7704 -29.7845 168.654 76.0837 -8.90136 -27.672 -1.91052 23.6106 -138.647 -23.7847 31.8755 142.761 -67.6977 -9.20277 -50.8211 -3.84792 1.34053 -5.93549 33.3877 3.30915 14.7849 -40.5939 11.0325 
0.0002500 0.1698020 0.0000017 -33.0941 3.61028 2.29029 -117.146 0.95239 -3.95235 -58.8932 -4.15344 9.76399 -7.25899 -2.47188 -1.86024 -100.398 74.5755 124.476 -111.529 -36.9032 -140.457 128.506 22.0816 -123.423 -57.9775 -31.9682 24.6985 3.84792 1.7643 -14.7407 73.4625 -32.6883 44.5888 44.8725 15.4232 -43.8108 -72.0582 13.5117 -22.3586 4.9652 0.882092 2.38219 -164.749 42.7502 -29.7536 168.652 76.1167 -8.92025 -28.0179 -2.00197 23.5566 -138.938 -23.5989 31.8632 143.227 -66.6037 -8.73959 -50.9169 -3.84015 1.19132 -6.03841 33.4056 3.27562 14.7658 -40.5948 11.0028 
0.0000893 0.1696240 -0.0002069 -33.0296 3.35936 2.26348 -117.354 0.981402 -3.70899 -58.6765 -4.10995 9.54177 -7.38357 -2.53773 -1.68543 -100.206 74.7429 124.139 -111.667 -37.0323 -140.557 128.288 21.9999 -123.299 -58.1509 -32.0228 24.8016 3.90443 1.73774 -14.8573 73.487 -32.673 44.6327 45.0602 15.429 -43.7014 -72.3669 13.5137 -22.4333 4.9323 0.913416 2.25615 -164.898 42.2393 -29.6692 168.633 75.9372 -8.88555 -27.8505 -1.9665 23.4777 -138.666 -24.0958 32.1365 142.883 -67.4616 -9.14391 -50.797 -3.8337 1.2219 -6.11252 33.617 3.37524 14.6701 -40.5738 10.9004 
0.0001490 0.1695150 -0.0003019 -33.0919 3.16899 2.25721 -117.366 1.00372 -3.50809 -58.6076 -4.08297 9.35775 -7.41292 -2.57993 -1.56792 -100.077 74.8331 123.931 -111.698 -37.0381 -140.625 128.287 21.9649 -123.308 -58.2103 -32.0428 24.8399 3.93275 1.72092 -14.8962 73.5244 -32.6546 44.7107 45.1444 15.3787 -43.7096 -72.4933 13.4973 -22.4288 4.91083 0.918482 2.24974 -164.891 41.9721 -29.6228 168.677 75.9092 -8.89204 -27.691 -1.92613 23.4659 -138.202 -24.6546 32.4779 142.287 -68.8641 -9.82568 -50.7171 -3.84328 1.37424 -6.01335 33.737 3.43718 14.6263 -40.5159 10.8478 
0.0001595 0.1697860 -0.0001695 -33.1304 3.42953 2.31026 -117.283 0.974625 -3.74379 -58.6381 -4.11516 9.58155 -7.40896 -2.58878 -1.51838 -100.128 74.8352 123.965 -111.64 -36.993 -140.566 128.453 21.9666 -123.483 -58.1624 -32.1549 24.8209 3.88354 1.75501 -14.9102 73.5179 -32.6552 44.6914 45.0576 15.3714 -43.8261 -72.3594 13.5566 -22.41 4.97835 0.903053 2.29348 -164.645 42.4318 -29.8373 168.644 76.0547 -8.91986 -27.6423 -1.91405 23.4529 -138.489 -24.0093 32.1432 142.825 -67.661 -9.22584 -50.9135 -3.85992 1.37644 -5.91987 33.5008 3.29226 14.686 -40.5028 10.8993 
0.0000392 0.1697190 -0.0002514 -33.0273 3.39383 2.30251 -117.35 0.97663 -3.6873 -58.6346 -4.12392 9.53906 -7.38161 -2.60561 -1.4968 -100.258 74.7399 123.854 -111.662 -37.0507 -140.509 128.326 21.9698 -123.359 -58.1866 -32.1242 24.8464 3.92735 1.74343 -14.9083 73.4701 -32.7039 44.646 45.2002 15.4323 -43.8326 -72.4309 13.5723 -22.4837 4.96435 0.920773 2.24738 -164.89 42.4523 -29.7114 168.616 75.9735 -8.88857 -27.725 -1.93261 23.5334 -138.83 -23.9402 32.0137 143.262 -66.5676 -8.79003 -51.0098 -3.84476 1.19631 -6.0825 33.6231 3.25805 14.7367 -40.5688 10.9573 
0.0000690 0.1694470 -0.0003236 -33.0166 3.11639 2.26735 -117.275 1.03294 -3.39267 -58.7764 -4.0569 9.23455 -7.18144 -2.64283 -1.40329 -100.355 74.8153 123.468 -111.718 -37.108 -140.54 128.139 22.0347 -123.081 -58.082 -32.0134 24.8567 4.02617 1.7036 -14.8126 73.4741 -32.7303 44.7153 45.3254 15.5068 -43.805 -72.3812 13.7458 -22.5526 5.01856 0.907939 2.39059 -165.137 42.1614 -29.4797 168.701 75.9438 -8.91289 -27.617 -1.89484 23.6766 -138.43 -24.6209 32.2949 142.689 -67.8762 -9.39703 -50.8711 -3.83517 1.24481 -6.16584 33.9161 3.36671 14.7105 -40.6176 10.9499 
0.0002096 0.1695320 -0.0001417 -33.0937 3.17787 2.25803 -117.03 1.05961 -3.42244 -59.0463 -3.98884 9.18685 -7.0259 -2.70019 -1.34149 -100.188 74.9511 123.245 -111.715 -37.0927 -140.561 128.245 22.1012 -123.098 -57.9104 -31.982 24.7976 3.9937 1.70613 -14.7316 73.4713 -32.7689 44.7888 45.2461 15.4989 -43.813 -72.1689 13.8079 -22.5285 5.07943 0.882757 2.53979 -164.931 42.2359 -29.5973 168.762 76.0705 -8.97358 -27.603 -1.88943 23.65 -138.132 -24.6412 32.4028 142.172 -68.9203 -9.87957 -50.8019 -3.85791 1.4739 -6.08552 33.8161 3.41346 14.7056 -40.6084 10.9527 
0.0001899 0.1698920 -0.0000161 -33.0417 3.48526 2.26099 -116.933 1.04173 -3.68781 -59.2269 -3.97346 9.37464 -7.05713 -2.70268 -1.44909 -100.133 74.8004 123.489 -111.698 -37.0738 -140.555 128.351 22.1613 -123.234 -57.8079 -32.0144 24.7653 3.90009 1.73835 -14.7215 73.4295 -32.8151 44.7568 45.2012 15.4995 -43.8805 -72.0692 13.6683 -22.5034 5.06135 0.893158 2.46487 -164.841 42.477 -29.7658 168.649 76.0011 -8.9164 -27.7226 -1.92909 23.5528 -138.683 -23.9281 32.024 142.83 -67.4854 -9.16036 -50.9491 -3.86611 1.41588 -6.14274 33.5409 3.35336 14.7674 -40.6319 11.0175 
0.0001895 0.1698930 -0.0001697 -32.9438 3.45982 2.23329 -116.982 1.04355 -3.67418 -59.2879 -3.98471 9.3663 -6.9721 -2.64926 -1.5707 -100.39 74.6776 123.581 -111.694 -37.0562 -140.58 128.485 22.1742 -123.347 -57.7406 -31.9813 24.7005 3.83641 1.76955 -14.7506 73.4182 -32.8012 44.6919 45.1911 15.566 -43.8699 -72.0191 13.6867 -22.5304 5.06687 0.898722 2.45005 -165.302 42.1817 -29.5787 168.384 75.433 -8.64307 -27.5302 -1.89338 23.5995 -139.086 -23.8821 31.8156 143.289 -66.4012 -8.7295 -50.9445 -3.8352 1.1616 -6.341 33.6495 3.38749 14.8491 -40.7183 11.0935 
